<svg width="34" height="29" viewBox="0 0 34 29" fill="none" xmlns="http://www.w3.org/2000/svg">
<path d="M17.0001 0.0624695C13.1458 0.0852643 9.42031 1.27039 6.46105 3.4151C3.50178 5.55981 1.49259 8.53084 0.777184 11.8199C0.0617782 15.109 0.684613 18.5118 2.53914 21.4462C4.39367 24.3805 7.36465 26.6641 10.9438 27.9062C10.7033 26.5392 10.7033 25.1483 10.9438 23.7812L12.9032 16.5625C12.5931 15.9087 12.4396 15.2069 12.452 14.5C12.452 12.4993 13.7938 10.9937 15.4563 10.9937C15.7575 10.9898 16.0561 11.0424 16.3317 11.1481C16.6072 11.2537 16.8533 11.4098 17.0529 11.6056C17.2525 11.8015 17.401 12.0326 17.4882 12.2829C17.5755 12.5333 17.5993 12.7971 17.5582 13.0562C17.5582 14.2937 16.6557 16.15 16.1807 17.8618C16.0785 18.1811 16.0663 18.517 16.1453 18.8412C16.2242 19.1654 16.392 19.4683 16.6343 19.7243C16.8766 19.9802 17.1864 20.1817 17.5374 20.3117C17.8884 20.4417 18.2703 20.4963 18.6507 20.4709C21.5957 20.4709 23.8757 17.7587 23.8757 13.8606C23.9053 13.0685 23.7445 12.2797 23.4035 11.5446C23.0625 10.8094 22.5487 10.1441 21.8951 9.59103C21.2414 9.03794 20.4622 8.60925 19.6071 8.33229C18.7521 8.05533 17.8399 7.93619 16.9288 7.98247C15.9562 7.94619 14.9851 8.08168 14.0745 8.38076C13.1638 8.67983 12.3326 9.13626 11.6309 9.72243C10.9293 10.3086 10.372 11.0123 9.99259 11.7909C9.61322 12.5696 9.41973 13.407 9.42384 14.2525C9.41064 15.4303 9.82625 16.5816 10.6113 17.5422C10.6684 17.5973 10.7091 17.6637 10.7298 17.7356C10.7505 17.8075 10.7506 17.8827 10.7301 17.9547C10.5995 18.4084 10.3145 19.3984 10.267 19.5943C10.2195 19.7903 10.0176 19.914 9.70884 19.7903C7.63072 18.9447 6.33634 16.315 6.33634 14.1906C6.33634 9.64278 10.1482 5.45591 17.3207 5.45591C23.0801 5.45591 27.5688 9.02403 27.5688 13.7987C27.5688 18.7693 24.0063 22.7706 18.9357 22.7706C18.1924 22.7931 17.4543 22.6539 16.7886 22.3657C16.1229 22.0776 15.5507 21.6496 15.1238 21.1206L14.0907 24.5547C13.5955 25.8892 12.9008 27.1617 12.0245 28.3393C13.6392 28.7538 15.3164 28.9554 17.0001 28.9375C21.4093 28.9375 25.6379 27.4164 28.7557 24.7088C31.8735 22.0013 33.6251 18.329 33.6251 14.5C33.6251 10.6709 31.8735 6.99867 28.7557 4.29112C25.6379 1.58356 21.4093 0.0624695 17.0001 0.0624695Z" fill="black"/>
</svg>
